<?xml version="1.0" encoding="iso-8859-1"?>
<!-- Generator: Adobe Illustrator 21.0.0, SVG Export Plug-In . SVG Version: 6.00 Build 0)  -->
<svg version="1.1" xmlns="http://www.w3.org/2000/svg" xmlns:xlink="http://www.w3.org/1999/xlink" x="0px" y="0px" width="2800px"
	 height="2800px" viewBox="0 0 2800 2800" enable-background="new 0 0 2800 2800" xml:space="preserve">
<g id="BACKGROUND">
	<g>
		<rect fill="#FFFFFF" width="2800" height="2800"/>
	</g>
</g>
<g id="OBJECTS">
	<g>
		<defs>
			<rect id="SVGID_1_" width="2800" height="2800"/>
		</defs>
		<clipPath id="SVGID_2_">
			<use xlink:href="#SVGID_1_"  overflow="visible"/>
		</clipPath>
		<g clip-path="url(#SVGID_2_)">
			
				<rect x="-634.2" y="-634.2" transform="matrix(0.7071 0.7071 -0.7071 0.7071 1400 -579.899)" fill="#233342" width="4068.4" height="4068.4"/>
			<path fill="#FFFFFF" d="M2329.6,1312.6l28.6-43.6l-12.5-8.2l-28.7,43.9l-174.8-109.3l29.3-44.8l-12.5-8.2l-29.5,45l-59.3-37.1
				l29.8-45.5l-12.5-8.2l-30,45.8l-174.6-109.1l29.1-44.5l-12.5-8.2l-29.3,44.8l-174-108.7l29.7-45.4l-12.5-8.2l-29.9,45.6
				l-319.3-199.5l-654.9,654.9l199.5,319.3l-45.6,29.9l8.2,12.5l45.4-29.7l108.7,174l-44.8,29.3l8.2,12.5l44.5-29.1l109.1,174.6
				l-45.8,30l8.2,12.5l45.5-29.8l37.1,59.3l-45,29.5l8.2,12.5l44.8-29.3l109.3,174.8l-43.9,28.7l8.2,12.5l43.6-28.6l221.4,354.2
				l6.7-6.7l1136.5-1136.5l6.7-6.7L2329.6,1312.6z M1536.7,2659.9L728.2,1366.2l638.1-638.1l1293.7,808.6L1536.7,2659.9z"/>
			
				<ellipse transform="matrix(0.7071 -0.7071 0.7071 0.7071 -431.5651 1041.8903)" fill="#D15D3D" cx="1041.9" cy="1041.9" rx="457.1" ry="457.1"/>
			<g>
				<path fill="#FFFFFF" d="M1359.8,723.9c13,13,25.3,26.9,36.5,41.2l11.8-9.2c-11.6-14.8-24.3-29.2-37.7-42.6
					c-44.4-44.4-96.1-78.7-153.7-102.1c-55.7-22.6-114.5-34-174.8-34c-60.3,0-119.2,11.4-174.8,34
					c-57.6,23.4-109.4,57.7-153.7,102.1C669,757.7,634.6,809.4,611.3,867c-22.6,55.7-34,114.5-34,174.8c0,60.3,11.4,119.2,34,174.8
					c23.4,57.6,57.7,109.4,102.1,153.7c13.4,13.4,27.7,26.1,42.6,37.7l9.2-11.8c-14.4-11.2-28.2-23.5-41.2-36.5
					c-42.9-42.9-76.2-93-98.8-148.7c-21.8-53.9-32.9-110.8-32.9-169.2s11.1-115.3,32.9-169.2c22.6-55.8,55.8-105.8,98.8-148.7
					c42.9-42.9,93-76.2,148.7-98.8c53.9-21.8,110.8-32.9,169.2-32.9s115.3,11.1,169.2,32.9C1266.9,647.8,1316.9,681,1359.8,723.9z"
					/>
				<path fill="#FFFFFF" d="M861.1,1470c37.6,15.8,77.1,26.7,117.7,32.2l2-14.9c-39.2-5.4-77.5-15.8-113.9-31.2L861.1,1470z"/>
				<path fill="#FFFFFF" d="M1098.9,1487.9l1.9,14.9c40.6-5.2,80.3-15.6,118-31.1l-5.7-13.9
					C1176.5,1472.8,1138.1,1482.9,1098.9,1487.9z"/>
				<path fill="#FFFFFF" d="M1487.9,1099c-5,39.3-15.2,77.7-30.1,114.2l13.9,5.7c15.5-37.7,26-77.4,31.2-118L1487.9,1099z"/>
				<path fill="#FFFFFF" d="M1502.3,978.9c-5.5-40.5-16.3-80.1-32.2-117.7l-13.8,5.8c15.3,36.4,25.8,74.7,31.1,113.9L1502.3,978.9z"
					/>
				<path fill="#FFFFFF" d="M1359.8,1359.8c-14,14-29,27.1-44.6,39.1l9.1,11.9c16.1-12.4,31.6-25.9,46-40.4
					c14.4-14.4,27.9-29.8,40.3-45.9l-11.9-9.1C1386.9,1331,1373.8,1345.9,1359.8,1359.8z"/>
			</g>
			
				<rect x="407.2" y="2041.2" transform="matrix(0.7071 -0.7071 0.7071 0.7071 -933.73 2254.2236)" fill="#D15D3D" width="3694" height="426"/>
			
				<rect x="774.6" y="2315" transform="matrix(0.7071 -0.7071 0.7071 0.7071 -1085.9064 2621.6099)" fill="#FF7552" width="3694" height="613.2"/>
			<path fill="#FFFFFF" d="M3415,802.9l-10.6-10.6l-81.5,81.5l-234.5-234.5c-83.1-83.1-174.5-157.7-271.7-221.9
				c-94.7-62.5-196.1-115.9-301.2-158.5c-103.2-41.9-211.2-73.9-320.9-95.1c-108.6-21-219.9-31.7-330.7-31.7
				c-110.8,0-222.1,10.7-330.7,31.7c-109.7,21.2-217.7,53.2-320.9,95.1c-105.2,42.6-206.5,96-301.2,158.5
				c-97.2,64.2-188.6,138.8-271.7,221.9c-83.1,83.1-157.7,174.5-221.9,271.7c-62.5,94.7-115.9,196.1-158.5,301.2
				C217,1315.4,185,1423.3,163.7,1533c-21,108.6-31.7,219.9-31.7,330.7c0,110.8,10.7,222.1,31.7,330.7
				c21.2,109.7,53.2,217.7,95.1,320.9c42.6,105.2,96,206.5,158.5,301.2c64.2,97.2,138.8,188.6,221.9,271.7l234.5,234.5l-81.5,81.5
				l10.6,10.6l81.5-81.5l0,0l5.3-5.3L3328.1,889.7l5.3-5.3l0,0L3415,802.9z M429.9,2808.4c-62-93.9-114.9-194.3-157.1-298.6
				c-41.5-102.4-73.2-209.4-94.3-318.1c-20.9-107.7-31.4-218-31.4-327.9c0-109.9,10.6-220.2,31.4-327.9
				c21.1-108.7,52.8-215.8,94.3-318.1c42.3-104.2,95.1-204.7,157.1-298.6c63.6-96.3,137.6-186.9,220-269.3s173-156.4,269.3-220
				c93.9-62,194.3-114.9,298.6-157.1c102.4-41.5,209.4-73.2,318.1-94.3c107.7-20.9,218-31.4,327.9-31.4
				c109.9,0,220.2,10.6,327.9,31.4c108.7,21.1,215.8,52.8,318.1,94.3c104.2,42.3,204.7,95.1,298.6,157.1
				c96.3,63.6,186.9,137.6,269.3,220l234.5,234.5L884.4,3312.2l-234.5-234.5C567.5,2995.3,493.5,2904.7,429.9,2808.4z"/>
			<g>
				
					<rect x="557.8" y="2397.3" transform="matrix(0.7071 -0.7071 0.7071 0.7071 -996.112 2404.9836)" fill="#FFFFFF" width="3694" height="15"/>
			</g>
			<path fill="#333333" d="M2505,2458.6l-414.3-414.3l-46.4,46.4l414.3,414.3c12.8,12.8,33.6,12.8,46.4,0l0,0
				C2517.8,2492.2,2517.8,2471.4,2505,2458.6z"/>
			<polygon opacity="0.2" points="2131.8,2087.1 1225.8,1181.2 1417.5,989.5 1201.7,733.1 733.1,1201.7 989.5,1417.5 1181.2,1225.8 
				2087.1,2131.8 			"/>
			<g>
				<path fill="#4D4D4D" d="M2058.7,2090.7l32-32l407.1,407.1c8.8,8.8,8.8,23.2,0,32c-8.8,8.8-23.2,8.8-32,0L2058.7,2090.7z"/>
				<path opacity="0.2" fill="#FFFFFF" d="M2490.6,2473l-376.7-376.7c-4.9-4.9-12.8-4.9-17.7,0c-4.9,4.9-4.9,12.8,0,17.7
					l376.7,376.7c2.4,2.4,5.6,3.7,8.8,3.7s6.4-1.2,8.8-3.7C2495.5,2485.8,2495.5,2477.8,2490.6,2473z"/>
				<g>
					<polygon fill="#666666" points="2438.9,1829.6 2431.9,1822.5 2259.8,1769.7 2014.7,2014.7 1769.7,2259.8 1822.5,2431.9 
						1829.6,2438.9 					"/>
					<polygon fill="#1A1A1A" points="2431.9,1822.5 2252.8,1762.6 2007.7,2007.7 1762.6,2252.8 1822.5,2431.9 					"/>
					<polygon fill="#FFFFFF" points="1776.3,2256 2256,1776.3 2409.8,1827.7 1827.7,2409.8 					"/>
					<polygon fill="#1A1A1A" points="2158.9,1976 2088.6,1926.8 2007.7,2007.7 1926.8,2088.6 1976,2158.9 					"/>
					<polygon fill="#666666" points="1942.3,2089.9 2089.9,1942.3 2140.4,1977.6 1977.6,2140.4 					"/>
					<path fill="#B54221" d="M2044.4,1997.8l-39-39c23.3-43.3,16.6-98.6-19.9-135.1c-44.6-44.6-117.2-44.6-161.8,0
						s-44.6,117.2,0,161.8c36.5,36.5,91.8,43.1,135.1,19.9l39,39L2044.4,1997.8z M1832.8,1976.3c-39.6-39.6-39.6-104,0-143.5
						s104-39.6,143.5,0s39.6,104,0,143.5S1872.4,2015.9,1832.8,1976.3z"/>
					<path fill="#D15D3D" d="M1959.3,2001.7l-2,1.1c-16.1,8.7-34.4,13.2-52.8,13.2c-29.8,0-57.8-11.6-78.8-32.6
						c-21-21-32.6-49-32.6-78.8c0-29.8,11.6-57.8,32.6-78.8s49-32.6,78.8-32.6c29.8,0,57.8,11.6,78.8,32.6
						c17.2,17.3,28.1,39.1,31.5,63.3c3.3,23.4-1.1,47.6-12.2,68.3l-1.1,2l38.5,38.5l-42.4,42.4L1959.3,2001.7z M1904.6,1800.1
						c-27.9,0-54.2,10.9-73.9,30.6c-19.7,19.7-30.6,45.9-30.6,73.9c0,27.9,10.9,54.2,30.6,73.9c19.7,19.7,45.9,30.6,73.9,30.6
						c27.9,0,54.2-10.9,73.9-30.6c19.7-19.7,30.6-45.9,30.6-73.9c0-27.9-10.9-54.2-30.6-73.9
						C1958.8,1811,1932.5,1800.1,1904.6,1800.1z"/>
				</g>
			</g>
		</g>
	</g>
	<g>
		
			<ellipse transform="matrix(0.7071 -0.7071 0.7071 0.7071 -1444.4078 1258.7856)" opacity="0.5" cx="797.3" cy="2372.9" rx="63.7" ry="114.3"/>
		<path id="XMLID_13468_" fill="#D15D3D" d="M783.4,2416.8L783.4,2416.8c0.3-3.9,1-7.8,2-11.6v0c0-1.8,0.3-3.6,1-5.3
			c2.6-7.1,6.5-13.7,11.5-19.5c0.6-0.7,1.4-1.2,2.3-1.5l0,0c0.5-0.5,1-1.1,1.5-1.6c0.9-0.9,1.9-1.9,2.9-2.7c0,0,0,0,0,0
			c-0.4,0-0.5-0.5-0.3-0.7c11.6-10.2,26.3-15.7,41.9-15.7c0.2,0,0.4,0,0.7,0c1.4,0,2.7,0.3,4,0.8l0,0c4,0.3,7.9,1,11.7,2
			c0,0,0,0,0,0c-0.4-0.2-0.1-0.8,0.3-0.6c10.6,2.9,20.4,8.5,28.4,16.5c6.9,6.9,12.1,15.2,15.2,24.2c0.5,1.5,0.8,3.2,0.7,4.8l0,0
			c1.3,5.2,2,10.5,2,16c0,0.1,0,0.2,0,0.3c0-0.1,0.1-0.3,0.1-0.4c0.1-0.4,0.6-0.3,0.6,0.1l0,0c0,5.7-0.7,11.3-2.2,16.7
			c-0.4,1.4-1,2.7-1.9,3.8l0,0c-1,2.8-2.2,5.6-3.5,8.3h0c0.3-0.2,0.7,0.1,0.5,0.5c-2.1,4-4.6,7.8-7.5,11.3c-0.4,0.5-1,0.8-1.6,0.9
			l0,0c-1,1.1-2,2.2-3,3.2c-0.4,0.4-0.8,0.8-1.3,1.2c0,0,0,0,0,0c0.4-0.1,0.6,0.4,0.3,0.6c-3.6,3.4-7.6,6.4-11.8,8.8
			c-0.3,0.2-0.7-0.2-0.4-0.5l0,0c-3.5,2-7.1,3.7-10.9,5h0c-1.1,0.9-2.5,1.5-3.9,1.9c-5.3,1.4-10.9,2.2-16.6,2.2
			c-10.3,0-20.2-2.4-29.1-7c-0.4-0.2-0.1-0.7,0.3-0.6l0,0c-4.6-2.4-8.9-5.3-12.9-8.8c-0.3-0.2-0.7-0.3-1-0.5c-0.9-0.4-1.7-1-2.4-1.7
			l0,0c-12-12-18.7-28-18.7-45.1c0-1.7,0.1-3.3,0.2-5C782.7,2416.5,783.3,2416.4,783.4,2416.8z"/>
		<g id="XMLID_9029_" opacity="0.1">
			<path id="XMLID_9030_" fill="#1A1A1A" d="M783.4,2416.8L783.4,2416.8c0.3-3.9,1-7.8,2-11.6v0c0-1.8,0.3-3.6,1-5.3
				c0.1-0.2,0.2-0.4,0.3-0.7l-0.1,6c-0.1,9.5,2.6,20.6,23.6,30.5c6.4,3,23.4,10.5,43.4,14.5c7.8,1.6,15.1,2.4,21.6,2.4
				c4.7,0,9.1-0.4,12.9-1.3c1.6-3.8,2.8-7.8,3.6-11.9c-7.9-0.3-16.5-6.3-31.5-21.7c-30.9-31.7-47.4-38.4-55.8-38.4l-0.2,0
				c-1.4,0-2.6,0.2-3.8,0.6l-3.1,1c0.2-0.2,0.3-0.4,0.5-0.6c0.6-0.7,1.4-1.2,2.3-1.5l0,0c0.5-0.5,1-1.1,1.5-1.6
				c0.9-0.9,1.9-1.9,2.9-2.7c0,0,0,0,0,0c-0.4,0-0.5-0.5-0.3-0.7c0.2-0.2,0.4-0.3,0.5-0.5c13.9,0.3,33.9,13.8,59.6,40.2
				c13.9,14.3,21.8,19.9,28,19.9c0.1,0,0.2,0,0.2,0c0.3-2.8,0.5-5.7,0.5-8.5c0-28.2-16.8-53.7-42.7-64.9l-4.4-1.9c0.1,0,0.1,0,0.2,0
				c0.2,0,0.4,0,0.7,0c1.4,0,2.7,0.3,4,0.8l0,0c4,0.3,7.9,1,11.7,2c0,0,0,0,0,0c-0.4-0.2-0.1-0.8,0.3-0.6c0.5,0.1,1,0.3,1.5,0.4
				c4.4,2.9,8.5,6.2,12.3,10c14.5,14.5,22.4,33.7,22.4,54.2c0,2.3-0.1,4.5-0.3,6.8c3.4-2.2,6.7-7.9,7.2-25.9l0.1-5.5
				c0.1,0.3,0.2,0.5,0.3,0.8c0.5,1.5,0.8,3.2,0.7,4.8l0,0c1.3,5.2,2,10.5,2,16c0,0.1,0,0.2,0,0.3c0-0.1,0.1-0.3,0.1-0.4
				c0.1-0.4,0.6-0.3,0.6,0.1l0,0c0,0.8,0,1.7-0.1,2.5c-0.4,1.6-0.9,3.1-1.5,4.4c-2.8,6.5-6.9,8.7-10.4,9.7c-0.6,3.5-1.5,7-2.6,10.5
				c0.3-0.2,0.7-0.3,1-0.5c3.5-1.7,6.4-4.1,8.7-6.9l3-3.8c-0.1,0.2-0.1,0.5-0.2,0.7c-0.4,1.4-1,2.7-1.9,3.8l0,0
				c-1,2.8-2.2,5.6-3.5,8.3h0c0.3-0.2,0.7,0.1,0.5,0.5c-0.1,0.3-0.3,0.6-0.5,0.9c-1.1,0.7-2.3,1.4-3.5,2c-2,1-4.2,1.8-6.5,2.5
				c-1,2.2-2.1,4.3-3.2,6.4c1.6-0.3,3.1-0.6,4.5-0.7l2.2-0.2c-0.1,0.2-0.3,0.3-0.4,0.5c-0.4,0.5-1,0.8-1.6,0.9l0,0
				c-1,1.1-2,2.2-3,3.2c-0.4,0.4-0.8,0.8-1.3,1.2c0,0,0,0,0,0c0.4-0.1,0.6,0.4,0.3,0.6c-0.2,0.2-0.5,0.4-0.7,0.7
				c-1.5,0.4-3.2,0.8-4.9,1.4c-1.5,2-3.1,4-4.9,5.9c-0.5,0.3-0.9,0.6-1.4,0.8c-0.3,0.2-0.7-0.2-0.4-0.5l0,0c-3.5,2-7.1,3.7-10.9,5h0
				c-1.1,0.9-2.5,1.5-3.9,1.9c-0.2,0.1-0.4,0.1-0.7,0.2l3.8-3c2.5-1.9,4.8-4,7-6.2c-10.2,3.6-22.4,7.3-36.2,7.3
				c-5.9,0-11.8-0.7-17.6-2.1c-0.7-0.3-1.4-0.7-2.1-1c-0.4-0.2-0.1-0.7,0.3-0.6l0,0c-4.6-2.4-8.9-5.3-12.9-8.8
				c-0.3-0.2-0.7-0.3-1-0.5c-0.9-0.4-1.7-1-2.4-1.7l0,0c-0.4-0.4-0.9-0.9-1.3-1.3l5.1,2.5c10.5,5.1,20.9,7.5,31.8,7.5
				c14.9,0,28.2-4.8,38.8-8.6c1.8-0.6,3.3-1.2,4.8-1.7c1.6-2.3,3.1-4.8,4.5-7.3c-3,0.4-6.3,0.6-9.8,0.6c-22.6,0-49.8-9-67.6-17.5
				c-13.3-6.3-21.5-13.9-25-23.1c0-0.4,0-0.8,0.1-1.2C782.7,2416.5,783.3,2416.4,783.4,2416.8z"/>
		</g>
		<path id="XMLID_9028_" fill="#233342" d="M876,2468.1c1.8-0.6,3.5-1.3,5.1-1.8c2.2-3.1,4.1-6.4,5.8-9.8c-25,4.5-60-7.5-78.9-16.4
			c-15.6-7.4-22.1-15.8-24.7-23.3c0.3-3.9,1-7.8,2-11.6c-0.1,8.9,1.9,21,24.3,31.6c6.4,3.1,23.6,10.6,43.7,14.6
			c14.1,2.8,26.2,3.1,35.5,1c1.9-4.5,3.3-9.2,4.2-14.1c-8,0.4-16.6-5.5-32.1-21.3c-31.1-32-47.9-38.7-56.6-38.7c-0.1,0-0.1,0-0.2,0
			c-1.5,0-2.8,0.2-4.1,0.6c0.5-0.5,1-1.1,1.5-1.6c0.9-0.9,1.9-1.9,2.9-2.7c13.6,0.1,33.4,13.5,59.1,39.9
			c14.1,14.5,22.1,20.2,28.8,20.2c0.4,0,0.8,0,1.2-0.1c0.4-3.1,0.6-6.4,0.6-9.6c0-29.5-17.9-54.9-43.4-65.9c4,0.3,7.9,1,11.7,2
			c4.7,3,9.2,6.5,13.3,10.6c14.3,14.3,22.1,33.2,22.1,53.4c0,2.9-0.2,5.9-0.5,8.7c4.4-1.6,9.1-6.2,9.7-27.8c1.3,5.2,2,10.5,2,16
			c0,0.1,0,0.2,0,0.3c-0.5,2.4-1.1,4.4-1.9,6.2c-2.6,6.2-6.5,8.2-10.4,9.3c-0.8,4.6-2,9.1-3.6,13.4c1.2-0.4,2.3-0.9,3.4-1.4
			c3.7-1.8,6.7-4.2,9-7.3c-1,2.8-2.2,5.6-3.5,8.3c-1.2,0.8-2.5,1.6-3.9,2.3c-2.1,1.1-4.4,1.9-6.8,2.6c-1.4,3.1-3,6.1-4.8,9.1
			c2.5-0.7,4.9-1.1,7-1.3c-1,1.1-2,2.2-3,3.2c-0.4,0.4-0.8,0.8-1.3,1.2c-1.8,0.4-3.7,1-5.9,1.7c-1.8,2.5-3.8,4.9-6,7.2
			c-3.5,2-7.1,3.7-10.9,5c3.7-2.9,7.2-6.2,10.3-9.8c-11.3,4.1-24.7,8.8-40.2,8.8c-6.1,0-12.6-0.8-19.4-2.6
			c-4.6-2.4-8.9-5.3-12.9-8.8C833.8,2483.4,857.9,2474.7,876,2468.1z"/>
		<path opacity="0.5" d="M859.6,2371.5c-35.2,0-63.7,28.5-63.7,63.7c0,13.3,4.1,25.7,11.1,36c-0.8-0.7-1.6-1.3-2.4-2
			c-0.3-0.2-0.7-0.3-1-0.5c-0.9-0.4-1.7-1-2.4-1.7l0,0c-12-12-18.7-28-18.7-45.1c0-1.7,0.1-3.3,0.2-5c0-0.4,0.6-0.5,0.7-0.1l0,0
			c0.3-3.9,1-7.8,2-11.6v0c0-1.8,0.3-3.6,1-5.3c2.6-7.1,6.5-13.7,11.5-19.5c0.6-0.7,1.4-1.2,2.3-1.5l0,0c0.5-0.5,1-1.1,1.5-1.6
			c0.9-0.9,1.9-1.9,2.9-2.7c0,0,0,0,0,0c-0.4,0-0.5-0.5-0.3-0.7c11.6-10.2,26.3-15.7,41.9-15.7c0.2,0,0.4,0,0.7,0
			c1.4,0,2.7,0.3,4,0.8l0,0c4,0.3,7.9,1,11.7,2c0,0,0,0,0,0c-0.4-0.2-0.1-0.8,0.3-0.6c10.6,2.9,20.4,8.5,28.4,16.5
			c2.3,2.3,4.4,4.7,6.2,7.2C886.9,2376.2,873.8,2371.5,859.6,2371.5z"/>
	</g>
	<g>
		
			<ellipse transform="matrix(0.7071 -0.7071 0.7071 0.7071 269.504 1729.6688)" opacity="0.5" cx="2222.6" cy="539.5" rx="63.7" ry="114.3"/>
		<path id="XMLID_4_" fill="#D15D3D" d="M2208.7,583.4L2208.7,583.4c0.3-3.9,1-7.8,2-11.6v0c0-1.8,0.3-3.6,1-5.3
			c2.6-7.1,6.5-13.7,11.5-19.5c0.6-0.7,1.4-1.2,2.3-1.5l0,0c0.5-0.5,1-1.1,1.5-1.6c0.9-0.9,1.9-1.9,2.9-2.7c0,0,0,0,0,0
			c-0.4,0-0.5-0.5-0.3-0.7c11.6-10.2,26.3-15.7,41.9-15.7c0.2,0,0.4,0,0.7,0c1.4,0,2.7,0.3,4,0.8l0,0c4,0.3,7.9,1,11.7,2
			c0,0,0,0,0,0c-0.4-0.2-0.1-0.8,0.3-0.6c10.6,2.9,20.4,8.5,28.4,16.5c6.9,6.9,12.1,15.2,15.2,24.2c0.5,1.5,0.8,3.2,0.7,4.8l0,0
			c1.3,5.2,2,10.5,2,16c0,0.1,0,0.2,0,0.3c0-0.1,0.1-0.3,0.1-0.4c0.1-0.4,0.6-0.3,0.6,0.1v0c0,5.7-0.7,11.3-2.2,16.7
			c-0.4,1.4-1,2.7-1.9,3.8l0,0c-1,2.8-2.2,5.6-3.5,8.3l0,0c0.3-0.2,0.7,0.1,0.5,0.5c-2.1,4-4.6,7.8-7.5,11.3c-0.4,0.5-1,0.8-1.6,0.9
			l0,0c-1,1.1-2,2.2-3,3.2c-0.4,0.4-0.8,0.8-1.3,1.2c0,0,0,0,0,0c0.4-0.1,0.6,0.4,0.3,0.6c-3.6,3.4-7.6,6.4-11.8,8.8
			c-0.3,0.2-0.7-0.2-0.4-0.5l0,0c-3.5,2-7.1,3.7-10.9,5v0c-1.1,0.9-2.5,1.5-3.9,1.9c-5.3,1.4-10.9,2.2-16.6,2.2
			c-10.3,0-20.2-2.4-29.1-7c-0.4-0.2-0.1-0.7,0.3-0.6l0,0c-4.6-2.4-8.9-5.3-12.9-8.8c-0.3-0.2-0.7-0.3-1-0.5c-0.9-0.4-1.7-1-2.4-1.7
			l0,0c-12-12-18.7-28-18.7-45.1c0-1.7,0.1-3.3,0.2-5C2208.1,583.1,2208.6,583,2208.7,583.4z"/>
		<g id="XMLID_2_" opacity="0.1">
			<path id="XMLID_3_" fill="#1A1A1A" d="M2208.7,583.4L2208.7,583.4c0.3-3.9,1-7.8,2-11.6v0c0-1.8,0.3-3.6,1-5.3
				c0.1-0.2,0.2-0.4,0.3-0.7l-0.1,6c-0.1,9.5,2.6,20.6,23.6,30.5c6.4,3,23.4,10.5,43.4,14.5c7.8,1.6,15.1,2.4,21.6,2.4
				c4.7,0,9.1-0.4,12.9-1.3c1.6-3.8,2.8-7.8,3.6-11.9c-7.9-0.3-16.5-6.3-31.5-21.7c-30.9-31.7-47.4-38.4-55.8-38.4l-0.2,0
				c-1.4,0-2.6,0.2-3.8,0.6l-3.1,1c0.2-0.2,0.3-0.4,0.5-0.6c0.6-0.7,1.4-1.2,2.3-1.5l0,0c0.5-0.5,1-1.1,1.5-1.6
				c0.9-0.9,1.9-1.9,2.9-2.7c0,0,0,0,0,0c-0.4,0-0.5-0.5-0.3-0.7c0.2-0.2,0.4-0.3,0.5-0.5c13.9,0.3,33.9,13.8,59.6,40.2
				c13.9,14.3,21.8,19.9,28,19.9c0.1,0,0.2,0,0.2,0c0.3-2.8,0.5-5.7,0.5-8.5c0-28.2-16.8-53.7-42.7-64.9l-4.4-1.9c0.1,0,0.1,0,0.2,0
				c0.2,0,0.4,0,0.7,0c1.4,0,2.7,0.3,4,0.8l0,0c4,0.3,7.9,1,11.7,2c0,0,0,0,0,0c-0.4-0.2-0.1-0.8,0.3-0.6c0.5,0.1,1,0.3,1.5,0.4
				c4.4,2.9,8.5,6.2,12.3,10c14.5,14.5,22.4,33.7,22.4,54.2c0,2.3-0.1,4.5-0.3,6.8c3.4-2.2,6.7-7.9,7.2-25.9l0.1-5.5
				c0.1,0.3,0.2,0.5,0.3,0.8c0.5,1.5,0.8,3.2,0.7,4.8l0,0c1.3,5.2,2,10.5,2,16c0,0.1,0,0.2,0,0.3c0-0.1,0.1-0.3,0.1-0.4
				c0.1-0.4,0.6-0.3,0.6,0.1v0c0,0.8,0,1.7-0.1,2.5c-0.4,1.6-0.9,3.1-1.5,4.4c-2.8,6.5-6.9,8.7-10.4,9.7c-0.6,3.5-1.5,7-2.6,10.5
				c0.3-0.2,0.7-0.3,1-0.5c3.5-1.7,6.4-4.1,8.7-6.9l3-3.8c-0.1,0.2-0.1,0.5-0.2,0.7c-0.4,1.4-1,2.7-1.9,3.8l0,0
				c-1,2.8-2.2,5.6-3.5,8.3l0,0c0.3-0.2,0.7,0.1,0.5,0.5c-0.1,0.3-0.3,0.6-0.5,0.9c-1.1,0.7-2.3,1.4-3.5,2c-2,1-4.2,1.8-6.5,2.5
				c-1,2.2-2.1,4.3-3.2,6.4c1.6-0.3,3.1-0.6,4.5-0.7l2.2-0.2c-0.1,0.2-0.3,0.3-0.4,0.5c-0.4,0.5-1,0.8-1.6,0.9l0,0
				c-1,1.1-2,2.2-3,3.2c-0.4,0.4-0.8,0.8-1.3,1.2c0,0,0,0,0,0c0.4-0.1,0.6,0.4,0.3,0.6c-0.2,0.2-0.5,0.4-0.7,0.7
				c-1.5,0.4-3.2,0.8-4.9,1.4c-1.5,2-3.1,4-4.9,5.9c-0.5,0.3-0.9,0.6-1.4,0.8c-0.3,0.2-0.7-0.2-0.4-0.5l0,0c-3.5,2-7.1,3.7-10.9,5v0
				c-1.1,0.9-2.5,1.5-3.9,1.9c-0.2,0.1-0.4,0.1-0.7,0.2l3.8-3c2.5-1.9,4.8-4,7-6.2c-10.2,3.6-22.4,7.3-36.2,7.3
				c-5.9,0-11.8-0.7-17.6-2.1c-0.7-0.3-1.4-0.7-2.1-1c-0.4-0.2-0.1-0.7,0.3-0.6l0,0c-4.6-2.4-8.9-5.3-12.9-8.8
				c-0.3-0.2-0.7-0.3-1-0.5c-0.9-0.4-1.7-1-2.4-1.7l0,0c-0.4-0.4-0.9-0.9-1.3-1.3l5.1,2.5c10.5,5.1,20.9,7.5,31.8,7.5
				c14.9,0,28.2-4.8,38.8-8.6c1.8-0.6,3.3-1.2,4.8-1.7c1.6-2.3,3.1-4.8,4.5-7.3c-3,0.4-6.3,0.6-9.8,0.6c-22.6,0-49.8-9-67.6-17.5
				c-13.3-6.3-21.5-13.9-25-23.1c0-0.4,0-0.8,0.1-1.2C2208.1,583.1,2208.6,583,2208.7,583.4z"/>
		</g>
		<path id="XMLID_1_" fill="#233342" d="M2301.4,634.7c1.8-0.6,3.5-1.3,5.1-1.8c2.2-3.1,4.1-6.4,5.8-9.8c-25,4.5-60-7.5-78.9-16.4
			c-15.6-7.4-22.1-15.8-24.7-23.3c0.3-3.9,1-7.8,2-11.6c-0.1,8.9,1.9,21,24.3,31.6c6.4,3.1,23.6,10.6,43.7,14.6
			c14.1,2.8,26.2,3.1,35.5,1c1.9-4.5,3.3-9.2,4.2-14.1c-8,0.4-16.6-5.5-32.1-21.3c-31.1-32-47.9-38.7-56.6-38.7c-0.1,0-0.1,0-0.2,0
			c-1.5,0-2.8,0.2-4.1,0.6c0.5-0.5,1-1.1,1.5-1.6c0.9-0.9,1.9-1.9,2.9-2.7c13.6,0.1,33.4,13.5,59.1,39.9
			c14.1,14.5,22.1,20.2,28.8,20.2c0.4,0,0.8,0,1.2-0.1c0.4-3.1,0.6-6.4,0.6-9.6c0-29.5-17.9-54.9-43.4-65.9c4,0.3,7.9,1,11.7,2
			c4.7,3,9.2,6.5,13.3,10.6c14.3,14.3,22.1,33.2,22.1,53.4c0,2.9-0.2,5.9-0.5,8.7c4.4-1.6,9.1-6.2,9.7-27.8c1.3,5.2,2,10.5,2,16
			c0,0.1,0,0.2,0,0.3c-0.5,2.4-1.1,4.4-1.9,6.2c-2.6,6.2-6.5,8.2-10.4,9.3c-0.8,4.6-2,9.1-3.6,13.4c1.2-0.4,2.3-0.9,3.4-1.4
			c3.7-1.8,6.7-4.2,9-7.3c-1,2.8-2.2,5.6-3.5,8.3c-1.2,0.8-2.5,1.6-3.9,2.3c-2.1,1.1-4.4,1.9-6.8,2.6c-1.4,3.1-3,6.1-4.8,9.1
			c2.5-0.7,4.9-1.1,7-1.3c-1,1.1-2,2.2-3,3.2c-0.4,0.4-0.8,0.8-1.3,1.2c-1.8,0.4-3.7,1-5.9,1.7c-1.8,2.5-3.8,4.9-6,7.2
			c-3.5,2-7.1,3.7-10.9,5c3.7-2.9,7.2-6.2,10.3-9.8c-11.3,4.1-24.7,8.8-40.2,8.8c-6.1,0-12.6-0.8-19.4-2.6
			c-4.6-2.4-8.9-5.3-12.9-8.8C2259.2,649.9,2283.3,641.2,2301.4,634.7z"/>
		<path opacity="0.5" d="M2284.9,538.1c-35.2,0-63.7,28.5-63.7,63.7c0,13.3,4.1,25.7,11.1,36c-0.8-0.7-1.6-1.3-2.4-2
			c-0.3-0.2-0.7-0.3-1-0.5c-0.9-0.4-1.7-1-2.4-1.7l0,0c-12-12-18.7-28-18.7-45.1c0-1.7,0.1-3.3,0.2-5c0-0.4,0.6-0.5,0.7-0.1l0,0
			c0.3-3.9,1-7.8,2-11.6v0c0-1.8,0.3-3.6,1-5.3c2.6-7.1,6.5-13.7,11.5-19.5c0.6-0.7,1.4-1.2,2.3-1.5l0,0c0.5-0.5,1-1.1,1.5-1.6
			c0.9-0.9,1.9-1.9,2.9-2.7c0,0,0,0,0,0c-0.4,0-0.5-0.5-0.3-0.7c11.6-10.2,26.3-15.7,41.9-15.7c0.2,0,0.4,0,0.7,0
			c1.4,0,2.7,0.3,4,0.8l0,0c4,0.3,7.9,1,11.7,2c0,0,0,0,0,0c-0.4-0.2-0.1-0.8,0.3-0.6c10.6,2.9,20.4,8.5,28.4,16.5
			c2.3,2.3,4.4,4.7,6.2,7.2C2312.3,542.7,2299.1,538.1,2284.9,538.1z"/>
	</g>
	<g>
		
			<ellipse transform="matrix(0.7071 -0.7071 0.7071 0.7071 -835.9572 1337.0189)" opacity="0.5" cx="1195.9" cy="1677.6" rx="63.7" ry="114.3"/>
		<path id="XMLID_16_" fill="#D15D3D" d="M1182,1721.4L1182,1721.4c0.3-3.9,1-7.8,2-11.6v0c0-1.8,0.3-3.6,1-5.3
			c2.6-7.1,6.5-13.7,11.5-19.5c0.6-0.7,1.4-1.2,2.3-1.5l0,0c0.5-0.5,1-1.1,1.5-1.6c0.9-0.9,1.9-1.9,2.9-2.7c0,0,0,0,0,0
			c-0.4,0-0.5-0.5-0.3-0.7c11.6-10.2,26.3-15.7,41.9-15.7c0.2,0,0.4,0,0.7,0c1.4,0,2.7,0.3,4,0.8l0,0c4,0.3,7.9,1,11.7,2
			c0,0,0,0,0,0c-0.4-0.2-0.1-0.8,0.3-0.6c10.6,2.9,20.4,8.5,28.4,16.5c6.9,6.9,12.1,15.2,15.2,24.2c0.5,1.5,0.8,3.2,0.7,4.8l0,0
			c1.3,5.2,2,10.5,2,16c0,0.1,0,0.2,0,0.3c0-0.1,0.1-0.3,0.1-0.4c0.1-0.4,0.6-0.3,0.6,0.1v0c0,5.7-0.7,11.3-2.2,16.7
			c-0.4,1.4-1,2.7-1.9,3.8l0,0c-1,2.8-2.2,5.6-3.5,8.3l0,0c0.3-0.2,0.7,0.1,0.5,0.5c-2.1,4-4.6,7.8-7.5,11.3c-0.4,0.5-1,0.8-1.6,0.9
			l0,0c-1,1.1-2,2.2-3,3.2c-0.4,0.4-0.8,0.8-1.3,1.2c0,0,0,0,0,0c0.4-0.1,0.6,0.4,0.3,0.6c-3.6,3.4-7.6,6.4-11.8,8.8
			c-0.3,0.2-0.7-0.2-0.4-0.5l0,0c-3.5,2-7.1,3.7-10.9,5l0,0c-1.1,0.9-2.5,1.5-3.9,1.9c-5.3,1.4-10.9,2.2-16.6,2.2
			c-10.3,0-20.2-2.4-29.1-7c-0.4-0.2-0.1-0.7,0.3-0.6l0,0c-4.6-2.4-8.9-5.3-12.9-8.8c-0.3-0.2-0.7-0.3-1-0.5c-0.9-0.4-1.7-1-2.4-1.7
			l0,0c-12-12-18.7-28-18.7-45.1c0-1.7,0.1-3.3,0.2-5C1181.4,1721.1,1181.9,1721.1,1182,1721.4z"/>
		<g id="XMLID_14_" opacity="0.1">
			<path id="XMLID_15_" fill="#1A1A1A" d="M1182,1721.4L1182,1721.4c0.3-3.9,1-7.8,2-11.6v0c0-1.8,0.3-3.6,1-5.3
				c0.1-0.2,0.2-0.4,0.3-0.7l-0.1,6c-0.1,9.5,2.6,20.6,23.6,30.5c6.4,3,23.4,10.5,43.4,14.5c7.8,1.6,15.1,2.4,21.6,2.4
				c4.7,0,9.1-0.4,12.9-1.3c1.6-3.8,2.8-7.8,3.6-11.9c-7.9-0.3-16.5-6.3-31.5-21.7c-30.9-31.7-47.4-38.4-55.8-38.4l-0.2,0
				c-1.4,0-2.6,0.2-3.8,0.6l-3.1,1c0.2-0.2,0.3-0.4,0.5-0.6c0.6-0.7,1.4-1.2,2.3-1.5l0,0c0.5-0.5,1-1.1,1.5-1.6
				c0.9-0.9,1.9-1.9,2.9-2.7c0,0,0,0,0,0c-0.4,0-0.5-0.5-0.3-0.7c0.2-0.2,0.4-0.3,0.5-0.5c13.9,0.3,33.9,13.8,59.6,40.2
				c13.9,14.3,21.8,19.9,28,19.9c0.1,0,0.2,0,0.2,0c0.3-2.8,0.5-5.7,0.5-8.5c0-28.2-16.8-53.7-42.7-64.9l-4.4-1.9c0.1,0,0.1,0,0.2,0
				c0.2,0,0.4,0,0.7,0c1.4,0,2.7,0.3,4,0.8l0,0c4,0.3,7.9,1,11.7,2c0,0,0,0,0,0c-0.4-0.2-0.1-0.8,0.3-0.6c0.5,0.1,1,0.3,1.5,0.4
				c4.4,2.9,8.5,6.2,12.3,10c14.5,14.5,22.4,33.7,22.4,54.2c0,2.3-0.1,4.5-0.3,6.8c3.4-2.2,6.7-7.9,7.2-25.9l0.1-5.5
				c0.1,0.3,0.2,0.5,0.3,0.8c0.5,1.5,0.8,3.2,0.7,4.8l0,0c1.3,5.2,2,10.5,2,16c0,0.1,0,0.2,0,0.3c0-0.1,0.1-0.3,0.1-0.4
				c0.1-0.4,0.6-0.3,0.6,0.1v0c0,0.8,0,1.7-0.1,2.5c-0.4,1.6-0.9,3.1-1.5,4.4c-2.8,6.5-6.9,8.7-10.4,9.7c-0.6,3.5-1.5,7-2.6,10.5
				c0.3-0.2,0.7-0.3,1-0.5c3.5-1.7,6.4-4.1,8.7-6.9l3-3.8c-0.1,0.2-0.1,0.5-0.2,0.7c-0.4,1.4-1,2.7-1.9,3.8l0,0
				c-1,2.8-2.2,5.6-3.5,8.3l0,0c0.3-0.2,0.7,0.1,0.5,0.5c-0.1,0.3-0.3,0.6-0.5,0.9c-1.1,0.7-2.3,1.4-3.5,2c-2,1-4.2,1.8-6.5,2.5
				c-1,2.2-2.1,4.3-3.2,6.4c1.6-0.3,3.1-0.6,4.5-0.7l2.2-0.2c-0.1,0.2-0.3,0.3-0.4,0.5c-0.4,0.5-1,0.8-1.6,0.9l0,0
				c-1,1.1-2,2.2-3,3.2c-0.4,0.4-0.8,0.8-1.3,1.2c0,0,0,0,0,0c0.4-0.1,0.6,0.4,0.3,0.6c-0.2,0.2-0.5,0.4-0.7,0.7
				c-1.5,0.4-3.2,0.8-4.9,1.4c-1.5,2-3.1,4-4.9,5.9c-0.5,0.3-0.9,0.6-1.4,0.8c-0.3,0.2-0.7-0.2-0.4-0.5l0,0c-3.5,2-7.1,3.7-10.9,5
				l0,0c-1.1,0.9-2.5,1.5-3.9,1.9c-0.2,0.1-0.4,0.1-0.7,0.2l3.8-3c2.5-1.9,4.8-4,7-6.2c-10.2,3.6-22.4,7.3-36.2,7.3
				c-5.9,0-11.8-0.7-17.6-2.1c-0.7-0.3-1.4-0.7-2.1-1c-0.4-0.2-0.1-0.7,0.3-0.6l0,0c-4.6-2.4-8.9-5.3-12.9-8.8
				c-0.3-0.2-0.7-0.3-1-0.5c-0.9-0.4-1.7-1-2.4-1.7l0,0c-0.4-0.4-0.9-0.9-1.3-1.3l5.1,2.5c10.5,5.1,20.9,7.5,31.8,7.5
				c14.9,0,28.2-4.8,38.8-8.6c1.8-0.6,3.3-1.2,4.8-1.7c1.6-2.3,3.1-4.8,4.5-7.3c-3,0.4-6.3,0.6-9.8,0.6c-22.6,0-49.8-9-67.6-17.5
				c-13.3-6.3-21.5-13.9-25-23.1c0-0.4,0-0.8,0.1-1.2C1181.4,1721.1,1181.9,1721.1,1182,1721.4z"/>
		</g>
		<path id="XMLID_13_" fill="#233342" d="M1274.7,1772.8c1.8-0.6,3.5-1.3,5.1-1.8c2.2-3.1,4.1-6.4,5.8-9.8c-25,4.5-60-7.5-78.9-16.4
			c-15.6-7.4-22.1-15.8-24.7-23.3c0.3-3.9,1-7.8,2-11.6c-0.1,8.9,1.9,21,24.3,31.6c6.4,3.1,23.6,10.6,43.7,14.6
			c14.1,2.8,26.2,3.1,35.5,1c1.9-4.5,3.3-9.2,4.2-14.1c-8,0.4-16.6-5.5-32.1-21.3c-31.1-32-47.9-38.7-56.6-38.7c-0.1,0-0.1,0-0.2,0
			c-1.5,0-2.8,0.2-4.1,0.6c0.5-0.5,1-1.1,1.5-1.6c0.9-0.9,1.9-1.9,2.9-2.7c13.6,0.1,33.4,13.5,59.1,39.9
			c14.1,14.5,22.1,20.2,28.8,20.2c0.4,0,0.8,0,1.2-0.1c0.4-3.1,0.6-6.4,0.6-9.6c0-29.5-17.9-54.9-43.4-65.9c4,0.3,7.9,1,11.7,2
			c4.7,3,9.2,6.5,13.3,10.6c14.3,14.3,22.1,33.2,22.1,53.4c0,2.9-0.2,5.9-0.5,8.7c4.4-1.6,9.1-6.2,9.7-27.8c1.3,5.2,2,10.5,2,16
			c0,0.1,0,0.2,0,0.3c-0.5,2.4-1.1,4.4-1.9,6.2c-2.6,6.2-6.5,8.2-10.4,9.3c-0.8,4.6-2,9.1-3.6,13.4c1.2-0.4,2.3-0.9,3.4-1.4
			c3.7-1.8,6.7-4.2,9-7.3c-1,2.8-2.2,5.6-3.5,8.3c-1.2,0.8-2.5,1.6-3.9,2.3c-2.1,1.1-4.4,1.9-6.8,2.6c-1.4,3.1-3,6.2-4.8,9.1
			c2.5-0.7,4.9-1.1,7-1.3c-1,1.1-2,2.2-3,3.2c-0.4,0.4-0.8,0.8-1.3,1.2c-1.8,0.4-3.7,1-5.9,1.7c-1.8,2.5-3.8,4.9-6,7.2
			c-3.5,2-7.1,3.7-10.9,5c3.7-2.9,7.2-6.2,10.3-9.8c-11.3,4.1-24.7,8.8-40.2,8.8c-6.1,0-12.6-0.8-19.4-2.6
			c-4.6-2.4-8.9-5.3-12.9-8.8C1232.5,1788,1256.6,1779.3,1274.7,1772.8z"/>
		<path opacity="0.5" d="M1258.2,1676.2c-35.2,0-63.7,28.5-63.7,63.7c0,13.3,4.1,25.7,11.1,36c-0.8-0.7-1.6-1.3-2.4-2
			c-0.3-0.2-0.7-0.3-1-0.5c-0.9-0.4-1.7-1-2.4-1.7l0,0c-12-12-18.7-28-18.7-45.1c0-1.7,0.1-3.3,0.2-5c0-0.4,0.6-0.5,0.7-0.1l0,0
			c0.3-3.9,1-7.8,2-11.6v0c0-1.8,0.3-3.6,1-5.3c2.6-7.1,6.5-13.7,11.5-19.5c0.6-0.7,1.4-1.2,2.3-1.5l0,0c0.5-0.5,1-1.1,1.5-1.6
			c0.9-0.9,1.9-1.9,2.9-2.7c0,0,0,0,0,0c-0.4,0-0.5-0.5-0.3-0.7c11.6-10.2,26.3-15.7,41.9-15.7c0.2,0,0.4,0,0.7,0
			c1.4,0,2.7,0.3,4,0.8l0,0c4,0.3,7.9,1,11.7,2c0,0,0,0,0,0c-0.4-0.2-0.1-0.8,0.3-0.6c10.6,2.9,20.4,8.5,28.4,16.5
			c2.3,2.3,4.4,4.7,6.2,7.2C1285.6,1680.8,1272.4,1676.2,1258.2,1676.2z"/>
	</g>
	<g>
		
			<ellipse transform="matrix(0.7071 -0.7071 0.7071 0.7071 -115.2554 2137.9314)" opacity="0.5" cx="2523.1" cy="1208.1" rx="63.7" ry="114.3"/>
		<path id="XMLID_8_" fill="#D15D3D" d="M2566.9,1194.2L2566.9,1194.2c-3.9,0.3-7.8,1-11.6,2l0,0c-1.8,0-3.6,0.3-5.3,1
			c-7.1,2.6-13.7,6.5-19.5,11.5c-0.7,0.6-1.2,1.4-1.5,2.3l0,0c-0.5,0.5-1.1,1-1.6,1.5c-0.9,0.9-1.9,1.9-2.7,2.9c0,0,0,0,0,0
			c0-0.4-0.5-0.5-0.7-0.3c-10.2,11.6-15.7,26.3-15.7,41.9c0,0.2,0,0.4,0,0.7c0,1.4,0.3,2.7,0.8,4l0,0c0.3,4,1,7.9,2,11.7
			c0,0,0,0,0,0c-0.2-0.4-0.8-0.1-0.6,0.3c2.9,10.6,8.5,20.4,16.5,28.4c6.9,6.9,15.2,12.1,24.2,15.2c1.5,0.5,3.2,0.8,4.8,0.7l0,0
			c5.2,1.3,10.5,2,16,2c0.1,0,0.2,0,0.3,0c-0.1,0-0.3,0.1-0.4,0.1c-0.4,0.1-0.3,0.6,0.1,0.6h0c5.7,0,11.3-0.7,16.7-2.2
			c1.4-0.4,2.7-1,3.8-1.9l0,0c2.8-1,5.6-2.2,8.3-3.5l0,0c-0.2,0.3,0.1,0.7,0.5,0.5c4-2.1,7.8-4.6,11.3-7.5c0.5-0.4,0.8-1,0.9-1.6
			l0,0c1.1-1,2.2-2,3.2-3c0.4-0.4,0.8-0.8,1.2-1.3c0,0,0,0,0,0c-0.1,0.4,0.4,0.6,0.6,0.3c3.4-3.6,6.4-7.6,8.8-11.8
			c0.2-0.3-0.2-0.7-0.5-0.4l0,0c2-3.5,3.7-7.1,5-10.9v0c0.9-1.1,1.5-2.5,1.9-3.9c1.4-5.3,2.2-10.9,2.2-16.6c0-10.3-2.4-20.2-7-29.1
			c-0.2-0.4-0.7-0.1-0.6,0.3l0,0c-2.4-4.6-5.3-8.9-8.8-12.9c-0.2-0.3-0.3-0.7-0.5-1c-0.4-0.9-1-1.7-1.7-2.4l0,0
			c-12-12-28-18.7-45.1-18.7c-1.7,0-3.3,0.1-5,0.2C2566.6,1193.5,2566.6,1194.1,2566.9,1194.2z"/>
		<g id="XMLID_6_" opacity="0.1">
			<path id="XMLID_7_" fill="#1A1A1A" d="M2509.2,1251.9L2509.2,1251.9c0.3-3.9,1-7.8,2-11.6v0c0-1.8,0.3-3.6,1-5.3
				c0.1-0.2,0.2-0.4,0.3-0.7l-0.1,6c-0.1,9.5,2.6,20.6,23.6,30.5c6.4,3,23.4,10.5,43.4,14.5c7.8,1.6,15.1,2.4,21.6,2.4
				c4.7,0,9.1-0.4,12.9-1.3c1.6-3.8,2.8-7.8,3.6-11.9c-7.9-0.3-16.5-6.3-31.5-21.7c-30.9-31.7-47.4-38.4-55.8-38.4l-0.2,0
				c-1.4,0-2.6,0.2-3.8,0.6l-3.1,1c0.2-0.2,0.3-0.4,0.5-0.6c0.6-0.7,1.4-1.2,2.3-1.5l0,0c0.5-0.5,1-1.1,1.5-1.6
				c0.9-0.9,1.9-1.9,2.9-2.7c0,0,0,0,0,0c-0.4,0-0.5-0.5-0.3-0.7c0.2-0.2,0.4-0.3,0.5-0.5c13.9,0.3,33.9,13.8,59.6,40.2
				c13.9,14.3,21.8,19.9,28,19.9c0.1,0,0.2,0,0.2,0c0.3-2.8,0.5-5.7,0.5-8.5c0-28.2-16.8-53.7-42.7-64.9l-4.4-1.9c0.1,0,0.1,0,0.2,0
				c0.2,0,0.4,0,0.7,0c1.4,0,2.7,0.3,4,0.8l0,0c4,0.3,7.9,1,11.7,2c0,0,0,0,0,0c-0.4-0.2-0.1-0.8,0.3-0.6c0.5,0.1,1,0.3,1.5,0.4
				c4.4,2.9,8.5,6.2,12.3,10c14.5,14.5,22.4,33.7,22.4,54.2c0,2.3-0.1,4.5-0.3,6.8c3.4-2.2,6.7-7.9,7.2-25.9l0.1-5.5
				c0.1,0.3,0.2,0.5,0.3,0.8c0.5,1.5,0.8,3.2,0.7,4.8l0,0c1.3,5.2,2,10.5,2,16c0,0.1,0,0.2,0,0.3c0-0.1,0.1-0.3,0.1-0.4
				c0.1-0.4,0.6-0.3,0.6,0.1v0c0,0.8,0,1.7-0.1,2.5c-0.4,1.6-0.9,3.1-1.5,4.4c-2.8,6.5-6.9,8.7-10.4,9.7c-0.6,3.5-1.5,7-2.6,10.5
				c0.3-0.2,0.7-0.3,1-0.5c3.5-1.7,6.4-4.1,8.7-6.9l3-3.8c-0.1,0.2-0.1,0.5-0.2,0.7c-0.4,1.4-1,2.7-1.9,3.8l0,0
				c-1,2.8-2.2,5.6-3.5,8.3l0,0c0.3-0.2,0.7,0.1,0.5,0.5c-0.1,0.3-0.3,0.6-0.5,0.9c-1.1,0.7-2.3,1.4-3.5,2c-2,1-4.2,1.8-6.5,2.5
				c-1,2.2-2.1,4.3-3.2,6.4c1.6-0.3,3.1-0.6,4.5-0.7l2.2-0.2c-0.1,0.2-0.3,0.3-0.4,0.5c-0.4,0.5-1,0.8-1.6,0.9l0,0
				c-1,1.1-2,2.2-3,3.2c-0.4,0.4-0.8,0.8-1.3,1.2c0,0,0,0,0,0c0.4-0.1,0.6,0.4,0.3,0.6c-0.2,0.2-0.5,0.4-0.7,0.7
				c-1.5,0.4-3.2,0.8-4.9,1.4c-1.5,2-3.1,4-4.9,5.9c-0.5,0.3-0.9,0.6-1.4,0.8c-0.3,0.2-0.7-0.2-0.4-0.5l0,0c-3.5,2-7.1,3.7-10.9,5v0
				c-1.1,0.9-2.5,1.5-3.9,1.9c-0.2,0.1-0.4,0.1-0.7,0.2l3.8-3c2.5-1.9,4.8-4,7-6.2c-10.2,3.6-22.4,7.3-36.2,7.3
				c-5.9,0-11.8-0.7-17.6-2.1c-0.7-0.3-1.4-0.7-2.1-1c-0.4-0.2-0.1-0.7,0.3-0.6l0,0c-4.6-2.4-8.9-5.3-12.9-8.8
				c-0.3-0.2-0.7-0.3-1-0.5c-0.9-0.4-1.7-1-2.4-1.7l0,0c-0.4-0.4-0.9-0.9-1.3-1.3l5.1,2.5c10.5,5.1,20.9,7.5,31.8,7.5
				c14.9,0,28.2-4.8,38.8-8.6c1.8-0.6,3.3-1.2,4.8-1.7c1.6-2.3,3.1-4.8,4.5-7.3c-3,0.4-6.3,0.6-9.8,0.6c-22.6,0-49.8-9-67.6-17.5
				c-13.3-6.3-21.5-13.9-25-23.1c0-0.4,0-0.8,0.1-1.2C2508.5,1251.6,2509.1,1251.6,2509.2,1251.9z"/>
		</g>
		<path id="XMLID_5_" fill="#233342" d="M2601.8,1303.3c1.8-0.6,3.5-1.3,5.1-1.8c2.2-3.1,4.1-6.4,5.8-9.8c-25,4.5-60-7.5-78.9-16.4
			c-15.6-7.4-22.1-15.8-24.7-23.3c0.3-3.9,1-7.8,2-11.6c-0.1,8.9,1.9,21,24.3,31.6c6.4,3.1,23.6,10.6,43.7,14.6
			c14.1,2.8,26.2,3.1,35.5,1c1.9-4.5,3.3-9.2,4.2-14.1c-8,0.4-16.6-5.5-32.1-21.3c-31.1-32-47.9-38.7-56.6-38.7c-0.1,0-0.1,0-0.2,0
			c-1.5,0-2.8,0.2-4.1,0.6c0.5-0.5,1-1.1,1.5-1.6c0.9-0.9,1.9-1.9,2.9-2.7c13.6,0.1,33.4,13.5,59.1,39.9
			c14.1,14.5,22.1,20.2,28.8,20.2c0.4,0,0.8,0,1.2-0.1c0.4-3.1,0.6-6.4,0.6-9.6c0-29.5-17.9-54.9-43.4-65.9c4,0.3,7.9,1,11.7,2
			c4.7,3,9.2,6.5,13.3,10.6c14.3,14.3,22.1,33.2,22.1,53.4c0,2.9-0.2,5.9-0.5,8.7c4.4-1.6,9.1-6.2,9.7-27.8c1.3,5.2,2,10.5,2,16
			c0,0.1,0,0.2,0,0.3c-0.5,2.4-1.1,4.4-1.9,6.2c-2.6,6.2-6.5,8.2-10.4,9.3c-0.8,4.6-2,9.1-3.6,13.4c1.2-0.4,2.3-0.9,3.4-1.4
			c3.7-1.8,6.7-4.2,9-7.3c-1,2.8-2.2,5.6-3.5,8.3c-1.2,0.8-2.5,1.6-3.9,2.3c-2.1,1.1-4.4,1.9-6.8,2.6c-1.4,3.1-3,6.2-4.8,9.1
			c2.5-0.7,4.9-1.1,7-1.3c-1,1.1-2,2.2-3,3.2c-0.4,0.4-0.8,0.8-1.3,1.2c-1.8,0.4-3.7,1-5.9,1.7c-1.8,2.5-3.8,4.9-6,7.2
			c-3.5,2-7.1,3.7-10.9,5c3.7-2.9,7.2-6.2,10.3-9.8c-11.3,4.1-24.7,8.8-40.2,8.8c-6.1,0-12.6-0.8-19.4-2.6
			c-4.6-2.4-8.9-5.3-12.9-8.8C2559.6,1318.5,2583.7,1309.8,2601.8,1303.3z"/>
		<path opacity="0.5" d="M2521.7,1270.4c0-35.2,28.5-63.7,63.7-63.7c13.3,0,25.7,4.1,36,11.1c-0.7-0.8-1.3-1.6-2-2.4
			c-0.2-0.3-0.3-0.7-0.5-1c-0.4-0.9-1-1.7-1.7-2.4l0,0c-12-12-28-18.7-45.1-18.7c-1.7,0-3.3,0.1-5,0.2c-0.4,0-0.5,0.6-0.1,0.7l0,0
			c-3.9,0.3-7.8,1-11.6,2l0,0c-1.8,0-3.6,0.3-5.3,1c-7.1,2.6-13.7,6.5-19.5,11.5c-0.7,0.6-1.2,1.4-1.5,2.3l0,0
			c-0.5,0.5-1.1,1-1.6,1.5c-0.9,0.9-1.9,1.9-2.7,2.9c0,0,0,0,0,0c0-0.4-0.5-0.5-0.7-0.3c-10.2,11.6-15.7,26.3-15.7,41.9
			c0,0.2,0,0.4,0,0.7c0,1.4,0.3,2.7,0.8,4l0,0c0.3,4,1,7.9,2,11.7c0,0,0,0,0,0c-0.2-0.4-0.8-0.1-0.6,0.3
			c2.9,10.6,8.5,20.4,16.5,28.4c2.3,2.3,4.7,4.4,7.2,6.2C2526.3,1297.7,2521.7,1284.6,2521.7,1270.4z"/>
	</g>
	<g>
		
			<ellipse transform="matrix(0.7071 -0.7071 0.7071 0.7071 -274.2501 396.8089)" opacity="0.5" cx="341.9" cy="529.5" rx="63.7" ry="114.3"/>
		<path id="XMLID_12_" fill="#D15D3D" d="M385.7,515.6L385.7,515.6c-3.9,0.3-7.8,1-11.6,2h0c-1.8,0-3.6,0.3-5.3,1
			c-7.1,2.6-13.7,6.5-19.5,11.5c-0.7,0.6-1.2,1.4-1.5,2.3l0,0c-0.5,0.5-1.1,1-1.6,1.5c-0.9,0.9-1.9,1.9-2.7,2.9c0,0,0,0,0,0
			c0-0.4-0.5-0.5-0.7-0.3c-10.2,11.6-15.7,26.3-15.7,41.9c0,0.2,0,0.4,0,0.7c0,1.4,0.3,2.7,0.8,4l0,0c0.3,4,1,7.9,2,11.7
			c0,0,0,0,0,0c-0.2-0.4-0.8-0.1-0.6,0.3c2.9,10.6,8.5,20.4,16.5,28.4c6.9,6.9,15.2,12.1,24.2,15.2c1.5,0.5,3.2,0.8,4.8,0.7l0,0
			c5.2,1.3,10.5,2,16,2c0.1,0,0.2,0,0.3,0c-0.1,0-0.3,0.1-0.4,0.1c-0.4,0.1-0.3,0.6,0.1,0.6h0c5.7,0,11.3-0.7,16.7-2.2
			c1.4-0.4,2.7-1,3.8-1.9l0,0c2.8-1,5.6-2.2,8.3-3.5l0,0c-0.2,0.3,0.1,0.7,0.5,0.5c4-2.1,7.8-4.6,11.3-7.5c0.5-0.4,0.8-1,0.9-1.6
			l0,0c1.1-1,2.2-2,3.2-3c0.4-0.4,0.8-0.8,1.2-1.3c0,0,0,0,0,0c-0.1,0.4,0.4,0.6,0.6,0.3c3.4-3.6,6.4-7.6,8.8-11.8
			c0.2-0.3-0.2-0.7-0.5-0.4l0,0c2-3.5,3.7-7.1,5-10.9l0,0c0.9-1.1,1.5-2.5,1.9-3.9c1.4-5.3,2.2-10.9,2.2-16.6
			c0-10.3-2.4-20.2-7-29.1c-0.2-0.4-0.7-0.1-0.6,0.3l0,0c-2.4-4.6-5.3-8.9-8.8-12.9c-0.2-0.3-0.3-0.7-0.5-1c-0.4-0.9-1-1.7-1.7-2.4
			l0,0c-12-12-28-18.7-45.1-18.7c-1.7,0-3.3,0.1-5,0.2C385.4,514.9,385.3,515.4,385.7,515.6z"/>
		<g id="XMLID_10_" opacity="0.1">
			<path id="XMLID_11_" fill="#1A1A1A" d="M328,573.3L328,573.3c0.3-3.9,1-7.8,2-11.6v0c0-1.8,0.3-3.6,1-5.3
				c0.1-0.2,0.2-0.4,0.3-0.7l-0.1,6c-0.1,9.5,2.6,20.6,23.6,30.5c6.4,3,23.4,10.5,43.4,14.5c7.8,1.6,15.1,2.4,21.6,2.4
				c4.7,0,9.1-0.4,12.9-1.3c1.6-3.8,2.8-7.8,3.6-11.9c-7.9-0.3-16.5-6.3-31.5-21.7c-30.9-31.7-47.4-38.4-55.8-38.4l-0.2,0
				c-1.4,0-2.6,0.2-3.8,0.6l-3.1,1c0.2-0.2,0.3-0.4,0.5-0.6c0.6-0.7,1.4-1.2,2.3-1.5l0,0c0.5-0.5,1-1.1,1.5-1.6
				c0.9-0.9,1.9-1.9,2.9-2.7c0,0,0,0,0,0c-0.4,0-0.5-0.5-0.3-0.7c0.2-0.2,0.4-0.3,0.5-0.5c13.9,0.3,33.9,13.8,59.6,40.2
				c13.9,14.3,21.8,19.9,28,19.9c0.1,0,0.2,0,0.2,0c0.3-2.8,0.5-5.7,0.5-8.5c0-28.2-16.8-53.7-42.7-64.9l-4.4-1.9c0.1,0,0.1,0,0.2,0
				c0.2,0,0.4,0,0.7,0c1.4,0,2.7,0.3,4,0.8l0,0c4,0.3,7.9,1,11.7,2c0,0,0,0,0,0c-0.4-0.2-0.1-0.8,0.3-0.6c0.5,0.1,1,0.3,1.5,0.4
				c4.4,2.9,8.5,6.2,12.3,10c14.5,14.5,22.4,33.7,22.4,54.2c0,2.3-0.1,4.5-0.3,6.8c3.4-2.2,6.7-7.9,7.2-25.9l0.1-5.5
				c0.1,0.3,0.2,0.5,0.3,0.8c0.5,1.5,0.8,3.2,0.7,4.8l0,0c1.3,5.2,2,10.5,2,16c0,0.1,0,0.2,0,0.3c0-0.1,0.1-0.3,0.1-0.4
				c0.1-0.4,0.6-0.3,0.6,0.1v0c0,0.8,0,1.7-0.1,2.5c-0.4,1.6-0.9,3.1-1.5,4.4c-2.8,6.5-6.9,8.7-10.4,9.7c-0.6,3.5-1.5,7-2.6,10.5
				c0.3-0.2,0.7-0.3,1-0.5c3.5-1.7,6.4-4.1,8.7-6.9l3-3.8c-0.1,0.2-0.1,0.5-0.2,0.7c-0.4,1.4-1,2.7-1.9,3.8l0,0
				c-1,2.8-2.2,5.6-3.5,8.3l0,0c0.3-0.2,0.7,0.1,0.5,0.5c-0.1,0.3-0.3,0.6-0.5,0.9c-1.1,0.7-2.3,1.4-3.5,2c-2,1-4.2,1.8-6.5,2.5
				c-1,2.2-2.1,4.3-3.2,6.4c1.6-0.3,3.1-0.6,4.5-0.7l2.2-0.2c-0.1,0.2-0.3,0.3-0.4,0.5c-0.4,0.5-1,0.8-1.6,0.9l0,0
				c-1,1.1-2,2.2-3,3.2c-0.4,0.4-0.8,0.8-1.3,1.2c0,0,0,0,0,0c0.4-0.1,0.6,0.4,0.3,0.6c-0.2,0.2-0.5,0.4-0.7,0.7
				c-1.5,0.4-3.2,0.8-4.9,1.4c-1.5,2-3.1,4-4.9,5.9c-0.5,0.3-0.9,0.6-1.4,0.8c-0.3,0.2-0.7-0.2-0.4-0.5l0,0c-3.5,2-7.1,3.7-10.9,5
				l0,0c-1.1,0.9-2.5,1.5-3.9,1.9c-0.2,0.1-0.4,0.1-0.7,0.2l3.8-3c2.5-1.9,4.8-4,7-6.2c-10.2,3.6-22.4,7.3-36.2,7.3
				c-5.9,0-11.8-0.7-17.6-2.1c-0.7-0.3-1.4-0.7-2.1-1c-0.4-0.2-0.1-0.7,0.3-0.6l0,0c-4.6-2.4-8.9-5.3-12.9-8.8
				c-0.3-0.2-0.7-0.3-1-0.5c-0.9-0.4-1.7-1-2.4-1.7l0,0c-0.4-0.4-0.9-0.9-1.3-1.3l5.1,2.5c10.5,5.1,20.9,7.5,31.8,7.5
				c14.9,0,28.2-4.8,38.8-8.6c1.8-0.6,3.3-1.2,4.8-1.7c1.6-2.3,3.1-4.8,4.5-7.3c-3,0.4-6.3,0.6-9.8,0.6c-22.6,0-49.8-9-67.6-17.5
				c-13.3-6.3-21.5-13.9-25-23.1c0-0.4,0-0.8,0.1-1.2C327.3,573,327.8,572.9,328,573.3z"/>
		</g>
		<path id="XMLID_9_" fill="#233342" d="M420.6,624.6c1.8-0.6,3.5-1.3,5.1-1.8c2.2-3.1,4.1-6.4,5.8-9.8c-25,4.5-60-7.5-78.9-16.4
			c-15.6-7.4-22.1-15.8-24.7-23.3c0.3-3.9,1-7.8,2-11.6c-0.1,8.9,1.9,21,24.3,31.6c6.4,3.1,23.6,10.6,43.7,14.6
			c14.1,2.8,26.2,3.1,35.5,1c1.9-4.5,3.3-9.2,4.2-14.1c-8,0.4-16.6-5.5-32.1-21.3c-31.1-32-47.9-38.7-56.6-38.7c-0.1,0-0.1,0-0.2,0
			c-1.5,0-2.8,0.2-4.1,0.6c0.5-0.5,1-1.1,1.5-1.6c0.9-0.9,1.9-1.9,2.9-2.7c13.6,0.1,33.4,13.5,59.1,39.9
			c14.1,14.5,22.1,20.2,28.8,20.2c0.4,0,0.8,0,1.2-0.1c0.4-3.1,0.6-6.4,0.6-9.6c0-29.5-17.9-54.9-43.4-65.9c4,0.3,7.9,1,11.7,2
			c4.7,3,9.2,6.5,13.3,10.6c14.3,14.3,22.1,33.2,22.1,53.4c0,2.9-0.2,5.9-0.5,8.7c4.4-1.6,9.1-6.2,9.7-27.8c1.3,5.2,2,10.5,2,16
			c0,0.1,0,0.2,0,0.3c-0.5,2.4-1.1,4.4-1.9,6.2c-2.6,6.2-6.5,8.2-10.4,9.3c-0.8,4.6-2,9.1-3.6,13.4c1.2-0.4,2.3-0.9,3.4-1.4
			c3.7-1.8,6.7-4.2,9-7.3c-1,2.8-2.2,5.6-3.5,8.3c-1.2,0.8-2.5,1.6-3.9,2.3c-2.1,1.1-4.4,1.9-6.8,2.6c-1.4,3.1-3,6.1-4.8,9.1
			c2.5-0.7,4.9-1.1,7-1.3c-1,1.1-2,2.2-3,3.2c-0.4,0.4-0.8,0.8-1.3,1.2c-1.8,0.4-3.7,1-5.9,1.7c-1.8,2.5-3.8,4.9-6,7.2
			c-3.5,2-7.1,3.7-10.9,5c3.7-2.9,7.2-6.2,10.3-9.8c-11.3,4.1-24.7,8.8-40.2,8.8c-6.1,0-12.6-0.8-19.4-2.6
			c-4.6-2.4-8.9-5.3-12.9-8.8C378.4,639.9,402.5,631.2,420.6,624.6z"/>
		<path opacity="0.5" d="M340.4,591.7c0-35.2,28.5-63.7,63.7-63.7c13.3,0,25.7,4.1,36,11.1c-0.7-0.8-1.3-1.6-2-2.4
			c-0.2-0.3-0.3-0.7-0.5-1c-0.4-0.9-1-1.7-1.7-2.4l0,0c-12-12-28-18.7-45.1-18.7c-1.7,0-3.3,0.1-5,0.2c-0.4,0-0.5,0.6-0.1,0.7l0,0
			c-3.9,0.3-7.8,1-11.6,2h0c-1.8,0-3.6,0.3-5.3,1c-7.1,2.6-13.7,6.5-19.5,11.5c-0.7,0.6-1.2,1.4-1.5,2.3l0,0c-0.5,0.5-1.1,1-1.6,1.5
			c-0.9,0.9-1.9,1.9-2.7,2.9c0,0,0,0,0,0c0-0.4-0.5-0.5-0.7-0.3c-10.2,11.6-15.7,26.3-15.7,41.9c0,0.2,0,0.4,0,0.7
			c0,1.4,0.3,2.7,0.8,4l0,0c0.3,4,1,7.9,2,11.7c0,0,0,0,0,0c-0.2-0.4-0.8-0.1-0.6,0.3c2.9,10.6,8.5,20.4,16.5,28.4
			c2.3,2.3,4.7,4.4,7.2,6.2C345.1,619.1,340.4,605.9,340.4,591.7z"/>
	</g>
</g>
</svg>
